<svg xmlns="http://www.w3.org/2000/svg" viewBox="0 0 220 220"><defs><style>.cls-1{fill:#f2d9c4;}</style></defs><g id="Layer_9" data-name="Layer 9"><path class="cls-1" d="M28.8,104.79C45.11,102.31,58.6,100.37,68,99c35.52-5,53.36-6.45,98.17-12.25,12.57-1.63,22.67-3,28.55-3.8l1.82,53.86q-52.21,8.94-107,16.34Q63,156.76,36.93,159.8L5.73,138.22Z"/><path d="M35.25,124.81l-.46-2.63,19.78-3,.45,2.63ZM46.7,142.14l-3.58-20.59,3.33-.51L50,141.63Z"/><path d="M62.17,139.8l-3.69-21.2,3.29-.5,3.69,21.2Zm-1-18.92-.46-2.62,13.76-2.08.45,2.63Zm1.57,9-.44-2.54,12.77-1.93.44,2.54Zm1.66,9.56L64,136.83l13.93-2.1.46,2.62Z"/><path d="M82.82,136.68l-3.69-21.21,2.31-.34,12.85,13.2-1.57.23,7.72-16.31,2.31-.35,3.69,21.2-3.29.5-2.81-16.16.76.07L95,130.38l-2.34.35L82.59,120.31l.71-.29,2.81,16.16Z"/><path d="M110.36,132.51l6.28-22.71,2.38-.36,13.59,19.71-3.57.54L117.74,113l1.26-.19L113.89,132Zm3.92-5.51-.44-2.51,12.78-1.93.43,2.5Z"/><path d="M151.53,126.6a9.74,9.74,0,0,1-5.22-.59,10.17,10.17,0,0,1-4.25-3.26,12.48,12.48,0,0,1-2.34-5.59,12.16,12.16,0,0,1,.31-6,9.32,9.32,0,0,1,7.6-6.39,9.78,9.78,0,0,1,9.44,3.81,12.51,12.51,0,0,1,2.32,5.61,12.09,12.09,0,0,1-.3,6,9.21,9.21,0,0,1-7.56,6.4Zm-.55-2.71a6,6,0,0,0,3.22-1.44,6.22,6.22,0,0,0,1.81-3.11,12.76,12.76,0,0,0-1.57-9,6.16,6.16,0,0,0-6.34-2.81,6.19,6.19,0,0,0-3.2,1.43,5.92,5.92,0,0,0-1.82,3.08,11,11,0,0,0,0,4.63,11.28,11.28,0,0,0,1.6,4.39,6.4,6.4,0,0,0,2.78,2.42A6.22,6.22,0,0,0,151,123.89Z"/><path d="M163.66,122.66l7.53-9.6a29,29,0,0,0,1.75-2.44,6.12,6.12,0,0,0,.81-1.83,4.31,4.31,0,0,0,0-1.64,3.17,3.17,0,0,0-1.62-2.36,5,5,0,0,0-3.22-.45,6.54,6.54,0,0,0-3.12,1.27,7.12,7.12,0,0,0-2.06,2.77l-2.61-1.33a9.24,9.24,0,0,1,2.89-3.65,10.1,10.1,0,0,1,4.54-1.77,9.55,9.55,0,0,1,4,.18,6.24,6.24,0,0,1,2.95,1.75,6,6,0,0,1,1.47,3.07,7.27,7.27,0,0,1,0,2.41,6.83,6.83,0,0,1-.93,2.31,29.89,29.89,0,0,1-2.12,3l-6.11,7.6Zm.3,1.75-.3-1.75,2.66-1.24,13.51-2,.44,2.57Z"/></g></svg>