<svg xmlns="http://www.w3.org/2000/svg" xmlns:xlink="http://www.w3.org/1999/xlink" viewBox="0 0 600 600"><defs><style>.cls-1{fill:#a06a4b;}.cls-2{fill:#ab7255;}.cls-3{fill:#e2ceb5;}.cls-4{fill:#a46946;}.cls-5{fill:url(#linear-gradient);}</style><linearGradient id="linear-gradient" x1="252.21" y1="235.33" x2="252.21" y2="8.56" gradientUnits="userSpaceOnUse"><stop offset="0" stop-color="#1e100b"/><stop offset="0.21" stop-color="#27140b"/><stop offset="0.55" stop-color="#41200b"/><stop offset="0.57" stop-color="#42210b"/><stop offset="0.87" stop-color="#42210b"/><stop offset="0.99" stop-color="#1e100b"/></linearGradient></defs><g id="Layer_3" data-name="Layer 3"><path class="cls-1" d="M274.27,579a14.63,14.63,0,0,1-5.64,4.25c-1.56.66-4.58,1.93-7.9,1.06-5.53-1.45-7.25-7.63-7.34-8a21.66,21.66,0,0,1-1.12-8.5,26.87,26.87,0,0,1,.56-3.73c.67-3.08,1.37-3.89,1.69-5.84s0-3.12-.56-5.85c-.76-3.54-1.37-7.11-2.26-10.63-2-7.76-2.94-11.64-3.38-12.76-2.68-6.72-5.25-7.4-9-13.82-1.7-2.88-3.23-8.16-6.21-18.6-3.29-11.53-5-17.41-5.64-23.39a111.34,111.34,0,0,1-.56-15.41c.11-7.88.75-9.07,1.13-19.13.3-8.09.45-12.13,0-17a113.21,113.21,0,0,0-3.39-18.08c-2.2-8.5-2.88-12.93-3.38-14.88-1.07-4.12-2.06-7.57-2.82-10.1,2.73.19,6.85.42,11.87.53,3.49.08,4,0,14,0h24.32c-.13,3.68-.42,9.22-1.13,16-.83,7.74-1.5,10.31-2.26,17a192,192,0,0,0-1.13,21.26c-.07,9.67.51,17.22,1.13,25.51,1,13.14,1.52,15.89,1.13,23.39-.22,4.16-.56,6.6-.56,11.16,0,.69,0,.69,0,1.07a38.74,38.74,0,0,1-1.13,7.44,53.18,53.18,0,0,0-.95,5.89,27,27,0,0,0-.18,3.67,27.87,27.87,0,0,0,1.13,6.38c.77,3.34.29,2.9,1.13,7.44.76,4.13,1.76,7.78,2.25,9.57s.88,3.33,1.53,5.9c.24.94.48,2.07.73,3.67a97.18,97.18,0,0,1,1.12,14c0,.39,0,.7,0,.88.25.25.64.62,1.12,1.06.79.74.94.85,1.13,1.07a5.27,5.27,0,0,1,1.13,2.12c1.34,4.11,2.1,6.17,1.69,9C276.25,574.49,276.06,576.73,274.27,579Z"/><path class="cls-2" d="M289.5,563.53a11.76,11.76,0,0,1-2.26,4.26,9.9,9.9,0,0,1-4.51,3.18c-1,.33-3.86,1.27-5.64,0-1.27-.89-1.09-3.16-1.85-5.25,0-.07-.41-1.12-.41-1.12s-.15-.35-.24-.54l-.36-.78a7.13,7.13,0,0,0-.53-.81c-1.08-1.45-2-2-2.25-3.19a4.86,4.86,0,0,1-.08-.58c-.26-2.32.06-3-.27-4.21a5.73,5.73,0,0,0-.78-1.59c-1.48-2.4-2.1-6.25-3.39-13.82-.94-5.56-.23-5.18-1.12-12.75-.75-6.31-1.94-8.62-2.26-14.89a33.06,33.06,0,0,1,0-6.37c.57-4.21,2.26-8.07,2.26-11.7,0-.23,0-2.12,0-2.12s0,.34,0,.34,0-6.1,0-8.85c.06-6.51.09-9.77,0-12.76-.15-4.44-.36-5.06-1.13-14.88-.62-7.8-.93-11.7-1.13-17-.34-8.93-.08-13.62,0-14.88.1-1.73.16-1.63,1.13-10.63,1.05-9.8.89-8.86,1.13-10.63,1-7.79,1.88-9.36,2.25-14.88a62.07,62.07,0,0,0,0-8.51h42.88c-1.14,2-2.74,4.92-4.52,8.51a71.18,71.18,0,0,0-3.38,7.44,40.77,40.77,0,0,0-2.26,11.69c-1.06,14.25-1.59,21.37-1.13,29.77.79,14.14,2.36,12.17,2.26,21.26-.13,11.83-2.87,21.81-4.51,27.64-2.78,9.89-4.91,12.8-5.64,21.26-.32,3.63-.18,6-1.13,10.63-1.12,5.48-2.23,6.62-3.39,12.76-.56,3-.06,1.46-1.13,9.56-.71,5.43-1.09,7.27,0,9.57s2.15,1.81,3.39,4.25C291.65,557.13,290.1,561.75,289.5,563.53Z"/><path class="cls-3" d="M342.53,370.06c-.8.42-1.84,1-3.08,1.57-.18.09-3,1.45-5.95,2.68a118.38,118.38,0,0,1-12.41,4.25c-11.83,3.25-36.41,1.56-45.13,1.07-28.93-1.63-48.18.82-65.44-2.13-11.27-1.93-15.8-3.19-15.8-3.19-5-1.4-7-2.34-9.54-2.84a19.47,19.47,0,0,1-2.87-.35A12,12,0,0,1,177.8,369a10.33,10.33,0,0,1-3.39-5.32c-1.9-6.23,2.42-14.72,3.39-20.2.84-4.74,2.22-11.65,4.51-20.2a144.09,144.09,0,0,1,3.39-19.13c.44-1.79.82-3.17,1.18-4.37,1-3.51,1.57-5.27,2.21-6.88a17.12,17.12,0,0,0,1.12-4.7V285c0-6.51,4.51-17,4.51-17,2.4-5.86,3.22-5.2,4.52-9.57a51.11,51.11,0,0,1,3.38-9.57c.28-.53.56-1,1.13-2.12,1.58-3.11,1.46-3.44,2.25-4.26,1.16-1.19,2.06-1.16,2.26-2.12s-.41-1.38,0-2.13c.33-.59.8-.46,1.13-1.06s.1-1,0-2.13c-.06-.7,0-1.42,0-2.12v-7.45c-.19-4.07-1.7-6.08-1.13-6.37.88-.46,2.7,3.14,7.9,6.37a34.88,34.88,0,0,0,6.77,3.19,50.46,50.46,0,0,0,7.9,2.13c3.36.69,6,1,6.77,1.06,6.26.66,8.48-.1,14.67,0,2.1,0,5.16.38,11.28,1.07,14.34,1.6,13.22,2,16.56,2,3.53,0,11.68-.19,19.54-5.19a30.25,30.25,0,0,0,10.16-10.63,35.13,35.13,0,0,0,3.38-9.57c1.16-5.71.13-7.87,2.26-11.7,1-1.84,1.29-1.39,4.51-5.31a94.42,94.42,0,0,0,6.77-9.57c3.38-5.2,5.06-7.8,5.64-9.57,1.1-3.29.61-4.94,0-12.75-.82-10.68-.12-10.47-1.12-22.33-.49-5.74-.73-8.61-1.13-10.63-.95-4.77-2-6.88-1.13-7.44,1.53-1,7.14,4.16,10.15,7.44a48.34,48.34,0,0,1,7.9,11.7,55.87,55.87,0,0,1,3.39,8.5,76.67,76.67,0,0,1,2.25,10.63c1.56,9.16.65,9.82,2.26,12.76,1.81,3.3,3.9,4.4,3.39,6.38-.46,1.72-2.34,2-5.65,4.25-3.59,2.46-2.87,3.19-6.77,6.38-2.19,1.8-1.87,1.11-10.15,6.38-3.67,2.33-4.33,2.84-6.77,4.25-4.7,2.71-4.75,2.25-5.64,3.19-1.11,1.17-1.29,2.11-2.26,12.75-.37,4.06-.54,6.13,0,8.51.21.87.42,1.45,1.13,4.25.49,1.92.69,2.82,1.13,4.25s.84,2.47,1.13,3.19L331.25,251c3.55,8.38,4.44,10.48,5.64,13.82,2.61,7.27,3.91,10.91,4.51,14.88,1.16,7.66-.58,8.55,1.13,15.95,1,4.11,1.84,5.34,2.26,9.56.38,3.89-.22,4.39,0,9.57.2,4.87.77,5.49,1.12,10.63.16,2.28,0,2.21,0,10.63,0,5,0,9.92,0,14.88,0,2.48-.23,5,0,7.44.38,4.05,1.21,6.17,0,8.51A7.82,7.82,0,0,1,342.53,370.06Z"/><path class="cls-4" d="M353.81,364.74a6.91,6.91,0,0,1-3.38,0,5.85,5.85,0,0,1-2.26-1.06c-1.58-1.35-1.29-3.76-1.13-6.38.17-2.83-.12-5.67,0-8.5.2-4.64-.09-3.43,0-11.7.11-8.79.43-9.76,0-13.82-.33-3.13-.54-2.71-1.13-7.44-.79-6.41-.35-6.87-1.12-10.63-.66-3.21-1-3.12-2.26-8.5a45.41,45.41,0,0,1-1.13-6.38,37.79,37.79,0,0,1,0-6.38c.35-5.67-1.46-10.68-4.51-19.13a109,109,0,0,0-4.52-10.63c-1.55-3.26-4-6.09-5.64-10.63,0-.1,0-.1-1.12-3.19-.24-.68-2-5.72-2.26-6.38s-.71-1.82-1.13-3.19-.5-1.89-1.13-4.25a41.84,41.84,0,0,1-1.13-4.26,24.44,24.44,0,0,1,0-4.25c.07-2.65,0-4.83,0-6.38a34.83,34.83,0,0,1,0-5.31,17.76,17.76,0,0,1,1.13-4.25L350.43,183c7.33,14.84,6.41,22.4,3.93,26.58A21.69,21.69,0,0,0,351,217c-.77,3.54-.17,5.88.59,11.69.84,6.5.36,5.69,1.12,11.7,1.28,10.09,2.43,10.88,3.39,18.07,1.42,10.66.49,21,0,26.57a48.91,48.91,0,0,0,0,12.76,72.6,72.6,0,0,0,2.26,9.57c1.2,4.31,1.87,6,3.38,10.63,2.61,8,3.91,12.06,4.51,15.94.75,4.78,1.33,8.79,0,13.82a32.74,32.74,0,0,1-4.51,9.57,31.11,31.11,0,0,1-4.51,5.32A7.45,7.45,0,0,1,353.81,364.74Z"/><path class="cls-4" d="M193.59,278.64c-.66,2.05-1.1,2.84-1.6,4.23a18.66,18.66,0,0,1-.65,2.14c-.5.9-1.05,1.25-1.13,2.13-.05.55.11,1,0,1.06s-.47-.61-.53-.72A49.7,49.7,0,0,1,184.57,268c0-2.54.13-2.82,0-5.32a62.05,62.05,0,0,0-1.13-8.5c-.7-3.7-.86-3.3-1.13-5.32-.4-3-.15-4.56,0-8.5v-20.2c-.29-7.13-1.33-8-2.26-17,0-.16,0-.41-.07-.74-.35-3.58-1.13-11.73.07-12,.89-.21,1.85,4.08,5.65,9.57a50,50,0,0,0,9,9.57,79,79,0,0,0,13.54,9.57,6.54,6.54,0,0,1,1.13,3.18c.08,1.36,0,1.69,0,3.19,0,2.67.83,2.93,1.13,6.38a15.35,15.35,0,0,1,0,3.19,13.87,13.87,0,0,1-.76,3.12c-.68,1.83-1.43,2-2.63,4.32a78.24,78.24,0,0,0-3.38,7.44c-.75,2-.57,1.77-1.13,3.19-1.64,4.14-3,5.33-4.51,8.51a44.19,44.19,0,0,0-2.26,7.44C194.36,274.86,194.78,275,193.59,278.64Z"/><path class="cls-5" d="M314.32,202.1a28.41,28.41,0,0,1-4.51,19.13,32.08,32.08,0,0,1-9,8.51,30.29,30.29,0,0,1-12.41,5.31c-2.75.45-5.22.3-10.15,0-3.5-.21-6.48-.59-10.16-1.06-5.21-.67-6-1-9-1.06-.6,0-2.66,0-6.77,0s-6.28,0-6.77,0c-2.4-.12-4.61-.43-9-1.07-.78-.11-2.78-.43-6.77-1.06-4.59-.73-6.92-1.11-9-2.13a22.22,22.22,0,0,1-3.38-2.12c-2.32-1.62-5.38-3.77-9-6.38s-6.83-4.77-9-6.38c-8.5-6.23-10.18-8.14-11.29-9.57a79.21,79.21,0,0,1-4.51-7.44c-2.74-4.77-4.1-7.16-4.51-8.5-1.92-6.29,1.63-7.72,0-13.82-1.16-4.32-3.05-4-5.65-10.63a31.22,31.22,0,0,1-2.25-8.51c-.22-2.16-.38-6.49,2.25-13.82,1.89-5.24,3.94-8.49,7.9-14.88,6.66-10.72,10-16.09,12.41-20.2,5.16-8.76,7.74-13.13,10.16-19.13,3.24-8,2.53-9.51,5.64-19.14,2.46-7.61,5.17-16,11.28-25.51a90.65,90.65,0,0,1,19.18-21.26,94.9,94.9,0,0,1,12.42-8.51,46.11,46.11,0,0,1,16.92-4.25,52.45,52.45,0,0,1,16.92,2.13c4.05,1,6.26,1.6,9,3.19,3.94,2.25,6.32,5,10.16,9.57A90,90,0,0,1,310.94,31a47.46,47.46,0,0,1,5.64,11.69c1.85,5.8,1.35,8.37,3.38,14.88,1.81,5.78,2.83,5.8,4.52,10.63,3,8.67.45,10.66,2.25,23.39,1.36,9.6,3,9.81,3.39,18.07.25,5.62-.47,6.54,0,12.76.55,7.43,1.7,7.74,2.25,14.88.6,7.57-.7,7.13,0,14.88.44,4.81,1.13,7.1,1.13,12.76a24.37,24.37,0,0,1-1.13,8.5,41.31,41.31,0,0,1-3.38,6.38c-3.41,5.84-3.67,5.46-6.77,10.63a19,19,0,0,1-2.26,3.19c-1.49,1.69-2.36,2-3.38,3.19A9.66,9.66,0,0,0,314.32,202.1Z"/></g></svg>