<svg xmlns="http://www.w3.org/2000/svg" xmlns:xlink="http://www.w3.org/1999/xlink" viewBox="0 0 1920 1080"><defs><style>.cls-1{fill:url(#linear-gradient);}.cls-2{fill:url(#linear-gradient-2);}.cls-3{fill:url(#linear-gradient-3);}.cls-4{fill:url(#linear-gradient-4);}.cls-5{fill:url(#linear-gradient-5);}.cls-6{fill:#0e0d0e;}.cls-7{fill:url(#linear-gradient-6);}.cls-8{fill:#a06a4b;}.cls-9{fill:#ab7255;}.cls-10{fill:#e2ceb5;}.cls-11{fill:#a46946;}.cls-12{fill:url(#linear-gradient-7);}</style><linearGradient id="linear-gradient" y1="540" x2="1920" y2="540" gradientUnits="userSpaceOnUse"><stop offset="0" stop-color="#d89864"/><stop offset="0.21" stop-color="#e19a64"/><stop offset="0.32" stop-color="#e99c64"/><stop offset="0.73" stop-color="#e8a7b4"/><stop offset="1" stop-color="#b88e6d"/></linearGradient><linearGradient id="linear-gradient-2" y1="1009.85" x2="1920" y2="1009.85" gradientUnits="userSpaceOnUse"><stop offset="0" stop-color="#d3ac85"/><stop offset="0.44" stop-color="#dabc9c"/><stop offset="1" stop-color="#e2ceb5"/></linearGradient><linearGradient id="linear-gradient-3" y1="914.45" x2="1920" y2="914.45" gradientUnits="userSpaceOnUse"><stop offset="0" stop-color="#a97a4c"/><stop offset="0.51" stop-color="#ab7d50"/><stop offset="0.83" stop-color="#7f4e19"/><stop offset="1" stop-color="#6a3800"/></linearGradient><linearGradient id="linear-gradient-4" y1="832.43" x2="1920" y2="832.43" gradientUnits="userSpaceOnUse"><stop offset="0" stop-color="#c1966a"/><stop offset="0.22" stop-color="#be9367"/><stop offset="0.46" stop-color="#aa7c4e"/><stop offset="0.76" stop-color="#ad8052"/><stop offset="0.92" stop-color="#c19468"/><stop offset="1" stop-color="#b28254"/></linearGradient><linearGradient id="linear-gradient-5" y1="788.98" x2="1920" y2="788.98" gradientUnits="userSpaceOnUse"><stop offset="0" stop-color="#d9b391"/><stop offset="0.34" stop-color="#d9b492"/><stop offset="0.63" stop-color="#d9bb9b"/><stop offset="0.96" stop-color="#d7ac86"/></linearGradient><linearGradient id="linear-gradient-6" x1="865" y1="462.46" x2="886" y2="462.46" gradientUnits="userSpaceOnUse"><stop offset="0.19" stop-color="#f2d9c4"/><stop offset="0.84" stop-color="#f2d9c4"/></linearGradient><linearGradient id="linear-gradient-7" x1="453.19" y1="660.78" x2="453.19" y2="434" gradientUnits="userSpaceOnUse"><stop offset="0" stop-color="#1e100b"/><stop offset="0.21" stop-color="#27140b"/><stop offset="0.55" stop-color="#41200b"/><stop offset="0.57" stop-color="#42210b"/><stop offset="0.87" stop-color="#42210b"/><stop offset="0.99" stop-color="#1e100b"/></linearGradient></defs><g id="Layer_8" data-name="Layer 8"><rect class="cls-1" width="1920" height="1080"/></g><g id="Layer_7" data-name="Layer 7"><path class="cls-2" d="M1920,1080H0V953c28.59-3.41,72.4-7.7,126-9,105-2.55,150.34,8.7,251,12,90,3,77.08-5.28,214-7,54-.68,56.38,1,276,7,139.26,3.83,158.68,3.84,181.5,3.5,83.21-1.25,131.21-4.81,203-9,83.36-4.86,236.08-13.49,416-10,65,1.26,151,4.44,252.5,12.5Z"/><path class="cls-3" d="M1920,962c-125.34-3.06-227.6-6.92-300-10-126.58-5.39-183.42-9.32-275-2-55.26,4.41-72.84,8.9-138,12-69.63,3.31-126.64,1.67-194,0-73.55-1.83-70.55-4-146-6-83.45-2.2-90.32.38-202-1-124.74-1.54-110.78-4.69-163-3-98.74,3.19-113.65,13.33-182,7-50.17-4.65-57.49-11.53-113-14-10-.45-57.08-2.32-120,4-35.12,3.53-64.72,8.56-87,13V877c29.65-1.71,65-3.5,105-5,56.38-2.12,99.23-2.81,112-3,33.64-.5,101.59-1.44,186,1,101,2.92,101.5,7.92,184,9,76,1,68.93-3.07,148-2,86.12,1.16,101.57,6,178,5,12.77-.17,47.18-1.78,116-5,87.1-4.07,107.65-5.39,169-8,66.32-2.82,100.09-4.22,130-4,58.12.43,66.37,3.64,129,6,64.74,2.44,89.42-2,195,0,90.48,1.7,150.33,8.23,166,10,42.2,4.77,77.21,10.5,102,15Z"/><path class="cls-4" d="M1920,896c-9.86-.86-25.63-2.25-45-4-89.94-8.12-105-10.24-143-13-30.39-2.2-62.31-4.52-105-5-58.47-.66-71,2.88-123,2s-52.19-4.61-107-7c-50.32-2.19-93.54-.13-180,4-73.45,3.51-74.57,5.08-131,7-14.09.48-35.5,1.11-130,2-77,.72-115.54,1.09-149,1-83.26-.21-79.87-1.7-173-2-67.42-.22-76.07.55-109-1-64.55-3-67.94-7.73-122-10-37.08-1.56-37,.59-143,3-12.5.28-50.5.86-126,2L0,877V848c29.32.77,75.32,1.17,132-2,52.59-2.94,74.63-6.72,127-10,64.86-4.06,95.42-2.29,148-3,73.58-1,101.57-5.66,226-16,172.43-14.32,151.07-7.93,321-22,145.82-12.07,180.28-18.42,277-22,62.68-2.32,109.39-4,172-3,26.24.44,49.87,1.27,91,1,44.8-.3,53.49-1.54,99-2,18.06-.18,58.32-.41,108,1,59.88,1.71,71.75,4,120,5,42.38.84,76.83-.1,99-1Z"/><path class="cls-5" d="M1920,774c-20.23,2-51.58,4.41-90,5-68.3,1-93.7-4.8-167-8-48.35-2.11-33.63.59-169,0-87.47-.38-93.92-1.48-153-1-64.7.53-97.94.85-142,4-69.22,4.94-72.26,10-154,17-41.4,3.54-37.34,2-138,8-58.59,3.51-102.56,6.6-151,10-78.08,5.48-117.13,8.22-148,11-50.38,4.53-72.61,7.37-120,10-40.83,2.27-73.14,2.87-81,3-46.3.79-50.9-.71-88,0-27.49.53-53.33,2.35-105,6-68.22,4.82-74.1,6.37-108,8-29.49,1.42-65.21,2.18-106,1V763c22.2-2.25,56.62-5.58,99-9,28.65-2.31,53.93-4.1,113-8,39.19-2.58,74.06-4.93,124-8,80.71-5,121.07-7.45,139-8,50.76-1.57,64.22.08,173,2,112.63,2,99,.23,172,2,82.5,2,89.22,4,211,8,42.08,1.39,89.1,2.94,149,4,111.9,2,115.52-.49,217,1,132.63,2,141.36,6.38,233,5,45.41-.68,66.78-2.12,124-2,30.82.07,55.79.55,93-1,31.13-1.3,56.51-3.42,73-5Z"/></g><g id="Layer_6" data-name="Layer 6"><path class="cls-6" d="M1353.91,670.21h15.63c7.35,0,8,0,9.38,0,10.34.24,14,2.11,21.88,3,9.32,1.09,8-1.08,26.57-1.52,5.28-.12,4.73.07,21.89,0,11.36,0,14.39-.14,18.75-1.52a37.93,37.93,0,0,0,14.07-7.59c5.39-4.73,7.61-9.75,9.38-9.11,1.52.55,1.55,4.84,1.56,6.07,0,3.38-1,4.64,0,6.08a4.3,4.3,0,0,0,4.69,1.52c1.53-.63,1.22-2.22,3.13-4.56,1.22-1.5,3.58-3.57,4.69-3s.57,2.47,0,9.11c-.42,4.88-.63,7.36-.35,9.1.31,1.92.65,2.12,3.3,8.65,3,7.32,3.19,8.68,3.3,9.58.31,2.65.62,5.94-1.56,9.11a10.48,10.48,0,0,1-7.82,4.56c-2,.09-2.49-.74-7.82-3-4.39-1.89-6.64-2.85-9.37-3a12.65,12.65,0,0,0-7.82,1.51c-2.69,1.67-3.77,4.12-4.69,6.08a15.75,15.75,0,0,0-1.56,9.11c.22,1.31,1,4.76,7.81,10.63,7.79,6.72,10,5,15.63,10.62,5.17,5.14,6.65,9.92,7.82,13.67,1.48,4.75.89,6.56,0,7.59a5.25,5.25,0,0,1-4.69,1.52c-1.53-.26-2.54-1.21-6.25-6.07-3.59-4.71-3.51-4.94-4.69-6.08-2.11-2-4.07-2.89-7.82-4.55-5.19-2.31-6.76-2.1-12.5-4.56-2.68-1.14-4.57-2.14-6.25-3a87.43,87.43,0,0,1-12.51-7.6c-2.89-2.16-3.23-2.78-4.69-3-3.47-.61-7.26,1.9-9.38,4.55-3,3.83-3.07,8.55-3.12,16.7,0,3.57.34,4.38,0,7.6-.27,2.51-.65,3.47,0,4.55,1.45,2.41,5.49,1.28,6.25,3s-1.82,4.66-4.69,6.07a12.36,12.36,0,0,1-12.5-1.52c-3.4-2.69-3.83-6.86-4.69-15.18-.95-9.13-1.5-14.36,0-21.26.52-2.43,1.17-4.45,0-6.07-1.36-1.89-5.1-1.79-12.51-1.52-17.56.64-18.26.76-20.32,0-2.81-1-5.83-2.84-7.81-1.52-.94.63-1,1.51-1.57,3-1.68,4.41-5.26,7.15-7.81,9.11-3.83,2.94-5.38,2.49-6.25,4.55-1.24,2.91.77,6.27,1.56,7.6,2.52,4.22,6.71,6.3,9.38,7.59,5.46,2.63,8.32,2.15,9.38,4.55.9,2.06-.22,4.64-1.57,6.08-3.43,3.67-10.11,1.75-10.94,1.51-2.89-.83-3.13-1.83-9.38-6.07-5.65-3.84-6.06-3.44-9.37-6.07-4.58-3.65-7.26-5.78-7.82-9.11s1.57-4.18,3.13-10.63c.43-1.8,2.27-9.43,0-10.63-1.77-.93-4.19,3-11,6.07-4.62,2.12-5.43,1.17-10.94,3a48.5,48.5,0,0,0-15.63,9.11c-5.44,4.42-9.69,7.87-9.38,12.15.15,2.07,1.25,2.7,1.57,6.07.2,2.14.55,6-1.57,7.59-2.59,2-8,0-10.94-3a12.32,12.32,0,0,1-3.12-9.11c.2-4.67,2.72-7.78,4.69-10.63,6-8.76,3.19-10,9.37-21.26,4.89-8.89,5.94-6.85,14.07-19.74,4.83-7.66,2.95-6,9.38-16.7,5-8.38,6.71-10.28,6.25-13.66s-2.63-4.91-9.38-12.15c-4.18-4.49-7.39-8.25-9.37-10.63a26.68,26.68,0,0,1-6.26-12.15c-.79-3.79-.49-7,0-12.14a37.38,37.38,0,0,1,1.57-9.11,30.56,30.56,0,0,1,6.25-10.63,32.73,32.73,0,0,1,14.07-9.11,14.65,14.65,0,0,1,6.25-3,14.83,14.83,0,0,1,6.25,0,4.68,4.68,0,0,1,1.56,3c.12,2.94-3.74,4.34-9.37,9.11a40.16,40.16,0,0,0-9.38,10.63,25.55,25.55,0,0,0-3.13,7.59,22.8,22.8,0,0,0,0,10.63c1.27,5,4.51,8.44,10.94,15.18a70.55,70.55,0,0,0,6.25,6.07A53.52,53.52,0,0,0,1353.91,670.21Z"/></g><g id="Layer_4" data-name="Layer 4"><path class="cls-7" d="M883,811a5.89,5.89,0,0,1-3,3,18.33,18.33,0,0,1-12,0,5.89,5.89,0,0,1-3-3l1.5-693.86c-.1-1.18-.15-4.47,3-6.08.7-.36,1.89-.8,7.5-1,3.74-.14,6.85-.08,9,0Z"/></g><g id="Layer_3" data-name="Layer 3"><path class="cls-8" d="M475.25,1004.39a14.54,14.54,0,0,1-5.64,4.25c-1.56.66-4.58,1.94-7.9,1.07-5.52-1.45-7.24-7.63-7.33-8a21.5,21.5,0,0,1-1.13-8.5,28.65,28.65,0,0,1,.56-3.72c.68-3.09,1.37-3.9,1.7-5.85s0-3.12-.57-5.85c-.76-3.54-1.37-7.11-2.25-10.63-2-7.76-2.94-11.64-3.39-12.75-2.68-6.73-5.25-7.4-9-13.82-1.71-2.89-3.23-8.17-6.21-18.61-3.29-11.52-4.95-17.41-5.64-23.38a111.63,111.63,0,0,1-.57-15.42c.11-7.87.75-9.07,1.13-19.13.31-8.08.46-12.12,0-17A113.25,113.25,0,0,0,425.61,829c-2.2-8.51-2.88-12.93-3.39-14.89-1.06-4.12-2.06-7.57-2.82-10.09,2.74.18,6.85.41,11.88.53,3.49.08,4,0,14,0h24.31c-.13,3.67-.41,9.21-1.13,15.94-.82,7.75-1.5,10.31-2.25,17a187.22,187.22,0,0,0-1.13,21.26c-.07,9.67.5,17.23,1.13,25.52,1,13.14,1.52,15.88,1.12,23.38-.21,4.17-.56,6.61-.56,11.17,0,.69,0,.68,0,1.06a38,38,0,0,1-1.13,7.44,55.8,55.8,0,0,0-1,5.9,22.69,22.69,0,0,0,1,10c.77,3.34.29,2.89,1.13,7.44.76,4.13,1.76,7.77,2.26,9.56s.88,3.33,1.53,5.91c.23.93.47,2.07.72,3.66a95.76,95.76,0,0,1,1.12,14c0,.39,0,.7,0,.88l1.13,1.07c.79.73.93.85,1.13,1.06a5.44,5.44,0,0,1,1.13,2.13c1.34,4.1,2.09,6.17,1.69,9C477.24,999.93,477,1002.18,475.25,1004.39Z"/><path class="cls-9" d="M490.48,989a11.84,11.84,0,0,1-2.25,4.25,9.82,9.82,0,0,1-4.52,3.19c-1,.33-3.85,1.26-5.64,0-1.27-.9-1.08-3.17-1.84-5.26,0-.06-.41-1.12-.41-1.12l-.25-.54c-.2-.45-.31-.68-.36-.77a5.22,5.22,0,0,0-.52-.82c-1.08-1.45-2-2-2.26-3.19,0-.09,0-.25-.08-.58-.26-2.32.07-3-.27-4.2a5.34,5.34,0,0,0-.78-1.59c-1.48-2.41-2.09-6.25-3.38-13.82-.95-5.57-.23-5.18-1.13-12.76-.75-6.31-1.93-8.62-2.26-14.88a34,34,0,0,1,0-6.38c.57-4.21,2.27-8.07,2.26-11.69,0-.24,0-2.13,0-2.13s0,.34,0,.34,0-6.1,0-8.85c.06-6.51.1-9.77,0-12.75-.14-4.45-.35-5.07-1.13-14.88-.62-7.81-.93-11.71-1.13-17-.33-8.94-.07-13.62,0-14.89.11-1.73.17-1.63,1.13-10.63,1-9.8.89-8.85,1.13-10.63,1-7.79,1.89-9.36,2.26-14.88a65.36,65.36,0,0,0,0-8.5h42.87c-1.14,2-2.73,4.91-4.51,8.5A71.54,71.54,0,0,0,504,820a40.77,40.77,0,0,0-2.25,11.7c-1.06,14.24-1.59,21.36-1.13,29.76.78,14.14,2.36,12.17,2.26,21.26-.13,11.83-2.88,21.81-4.52,27.64-2.78,9.89-4.9,12.8-5.64,21.26-.32,3.63-.18,6-1.13,10.63-1.12,5.48-2.23,6.63-3.38,12.76-.57,3-.06,1.47-1.13,9.57-.71,5.43-1.09,7.26,0,9.56s2.14,1.81,3.38,4.26C492.63,982.57,491.08,987.19,490.48,989Z"/><path class="cls-10" d="M543.51,795.5c-.79.42-1.83,1-3.07,1.57-.18.09-3,1.46-6,2.68A119.56,119.56,0,0,1,522.08,804c-11.83,3.25-36.41,1.55-45.14,1.06-28.93-1.62-48.18.82-65.44-2.13-11.27-1.92-15.79-3.19-15.79-3.19-5-1.4-7-2.33-9.55-2.83a20.06,20.06,0,0,1-2.86-.36,12,12,0,0,1-4.52-2.12,10.36,10.36,0,0,1-3.38-5.32c-1.91-6.23,2.41-14.71,3.38-20.19.84-4.75,2.22-11.66,4.52-20.2a144.58,144.58,0,0,1,3.38-19.14c.44-1.79.82-3.17,1.18-4.37,1.05-3.51,1.58-5.26,2.21-6.88a16.29,16.29,0,0,0,1.12-4.69v-3.19c0-6.52,4.52-17,4.52-17,2.4-5.86,3.22-5.2,4.51-9.57a51.51,51.51,0,0,1,3.39-9.57c.27-.53.56-1,1.12-2.12,1.58-3.11,1.47-3.44,2.26-4.25,1.16-1.2,2.06-1.17,2.26-2.13s-.42-1.38,0-2.13c.32-.58.79-.46,1.13-1.06s.09-1,0-2.13c-.06-.7,0-1.41,0-2.12v-7.44c-.2-4.08-1.7-6.09-1.13-6.38.88-.46,2.7,3.15,7.89,6.38a36.12,36.12,0,0,0,6.77,3.19,50.9,50.9,0,0,0,7.9,2.12c3.37.69,6,1,6.77,1.07,6.26.65,8.48-.11,14.67,0,2.11,0,5.17.37,11.28,1.06,14.35,1.6,13.23,2,16.57,2,3.52,0,11.67-.18,19.54-5.19a30.18,30.18,0,0,0,10.15-10.63,34.8,34.8,0,0,0,3.39-9.57c1.15-5.71.13-7.87,2.26-11.69,1-1.85,1.29-1.39,4.51-5.32a94.25,94.25,0,0,0,6.77-9.56c3.37-5.21,5.06-7.81,5.64-9.57,1.09-3.3.6-4.94,0-12.76-.82-10.67-.13-10.47-1.13-22.32-.48-5.74-.73-8.61-1.13-10.63-1-4.78-2-6.89-1.12-7.44,1.52-1,7.13,4.15,10.15,7.44a48.76,48.76,0,0,1,7.9,11.69,56.65,56.65,0,0,1,3.38,8.5A77.83,77.83,0,0,1,553.67,584c1.56,9.15.64,9.81,2.26,12.75,1.81,3.3,3.9,4.41,3.38,6.38-.45,1.73-2.34,2-5.64,4.25-3.6,2.46-2.87,3.19-6.77,6.38-2.2,1.8-1.87,1.12-10.15,6.38-3.68,2.33-4.33,2.84-6.77,4.25-4.71,2.71-4.76,2.25-5.65,3.19-1.11,1.17-1.28,2.11-2.25,12.76-.37,4.05-.55,6.13,0,8.5.2.87.42,1.45,1.13,4.25.48,1.92.68,2.83,1.12,4.26s.84,2.46,1.13,3.18c1.79,4.2,4.09,9.62,6.77,16,3.55,8.38,4.45,10.49,5.64,13.82,2.61,7.28,3.91,10.92,4.52,14.88,1.16,7.66-.58,8.55,1.12,16,1,4.11,1.84,5.34,2.26,9.57.39,3.88-.21,4.38,0,9.56.2,4.88.78,5.5,1.13,10.63.16,2.28.05,2.22,0,10.63,0,5,0,9.93,0,14.89,0,2.48-.23,5,0,7.44.38,4.05,1.21,6.17,0,8.5A7.78,7.78,0,0,1,543.51,795.5Z"/><path class="cls-11" d="M554.8,790.19a7.08,7.08,0,0,1-3.39,0,6,6,0,0,1-2.25-1.07c-1.59-1.35-1.29-3.76-1.13-6.37.17-2.84-.12-5.68,0-8.51.19-4.64-.1-3.42,0-11.69.1-8.79.43-9.77,0-13.82-.34-3.14-.55-2.72-1.13-7.44-.79-6.42-.36-6.87-1.13-10.63-.66-3.22-1-3.13-2.26-8.51a46.39,46.39,0,0,1-1.12-6.38,36.72,36.72,0,0,1,0-6.38c.34-5.67-1.47-10.67-4.52-19.13a106.94,106.94,0,0,0-4.51-10.63c-1.56-3.26-4-6.09-5.64-10.63,0-.1,0-.1-1.13-3.19-.24-.68-2-5.72-2.26-6.38s-.7-1.82-1.12-3.19-.5-1.88-1.13-4.25a42.78,42.78,0,0,1-1.13-4.25,23.45,23.45,0,0,1,0-4.25c.07-2.66,0-4.84,0-6.38-.06-3.41-.2-3.86,0-5.32a17.3,17.3,0,0,1,1.13-4.25l29.33-19.13c7.33,14.83,6.41,22.39,3.93,26.57a22,22,0,0,0-3.38,7.44c-.77,3.55-.17,5.88.58,11.7.84,6.49.37,5.68,1.13,11.69,1.28,10.1,2.43,10.88,3.38,18.07,1.42,10.66.5,21,0,26.58a49.73,49.73,0,0,0,0,12.75,73.85,73.85,0,0,0,2.26,9.57c1.21,4.31,1.88,6,3.39,10.63,2.6,8,3.9,12.06,4.51,16,.74,4.78,1.32,8.78,0,13.82a33.25,33.25,0,0,1-4.51,9.57,31.1,31.1,0,0,1-4.52,5.31A7.53,7.53,0,0,1,554.8,790.19Z"/><path class="cls-11" d="M394.58,704.08c-.67,2-1.11,2.84-1.6,4.24a18.65,18.65,0,0,1-.66,2.14c-.5.89-1.05,1.24-1.13,2.12,0,.56.12,1,0,1.07s-.46-.62-.52-.73a49.61,49.61,0,0,1-5.12-19.47c0-2.54.14-2.82,0-5.32a62.27,62.27,0,0,0-1.13-8.5c-.69-3.7-.85-3.3-1.12-5.32-.41-3-.15-4.56,0-8.5v-20.2c-.29-7.12-1.34-8-2.26-17,0-.15,0-.41-.08-.74-.35-3.57-1.13-11.73.08-12,.88-.21,1.84,4.07,5.64,9.56a49.47,49.47,0,0,0,9,9.57,78.21,78.21,0,0,0,13.54,9.57,6.6,6.6,0,0,1,1.13,3.19c.08,1.35,0,1.69,0,3.19,0,2.67.82,2.93,1.12,6.38a14.54,14.54,0,0,1,0,3.18,13.22,13.22,0,0,1-.75,3.13c-.69,1.83-1.44,2-2.63,4.32a77.94,77.94,0,0,0-3.39,7.44c-.74,2-.56,1.77-1.12,3.19-1.65,4.14-3,5.33-4.52,8.5a46.12,46.12,0,0,0-2.25,7.44C395.34,700.3,395.76,700.44,394.58,704.08Z"/><path class="cls-12" d="M515.31,627.54a28.37,28.37,0,0,1-4.52,19.13,31.92,31.92,0,0,1-9,8.51,30.36,30.36,0,0,1-12.41,5.31c-2.75.45-5.22.3-10.16,0-3.5-.21-6.48-.59-10.15-1.06-5.21-.67-6-.94-9-1.06-.59,0-2.65,0-6.77,0s-6.28,0-6.77,0c-2.39-.11-4.6-.43-9-1.06l-6.77-1.07c-4.58-.73-6.92-1.11-9-2.12a23,23,0,0,1-3.39-2.13c-2.31-1.62-5.38-3.77-9-6.38s-6.83-4.76-9-6.38c-8.49-6.23-10.18-8.14-11.28-9.56a78.31,78.31,0,0,1-4.52-7.45c-2.73-4.77-4.1-7.15-4.51-8.5-1.92-6.29,1.63-7.72,0-13.82-1.15-4.32-3.05-4-5.64-10.63a31.56,31.56,0,0,1-2.26-8.5c-.22-2.17-.38-6.5,2.26-13.82,1.88-5.24,3.93-8.5,7.9-14.89,6.66-10.72,10-16.08,12.41-20.19,5.16-8.76,7.73-13.14,10.15-19.14,3.24-8,2.53-9.5,5.65-19.13,2.46-7.62,5.17-16,11.28-25.52a90.65,90.65,0,0,1,19.18-21.26,94.68,94.68,0,0,1,12.41-8.5,46,46,0,0,1,16.93-4.25,52.49,52.49,0,0,1,16.92,2.12c4,1,6.26,1.61,9,3.19,3.93,2.25,6.31,5,10.15,9.57a87.78,87.78,0,0,1,5.64,7.44,47.1,47.1,0,0,1,5.64,11.69c1.85,5.8,1.36,8.37,3.39,14.89,1.8,5.78,2.82,5.79,4.51,10.63,3,8.66.46,10.65,2.26,23.38,1.36,9.6,3,9.81,3.38,18.08.26,5.62-.46,6.53,0,12.75.56,7.43,1.7,7.74,2.26,14.88.59,7.58-.7,7.13,0,14.89.43,4.8,1.12,7.1,1.13,12.75a24.67,24.67,0,0,1-1.13,8.51,41.78,41.78,0,0,1-3.38,6.38c-3.41,5.84-3.67,5.45-6.77,10.63A20.08,20.08,0,0,1,521,619c-1.5,1.69-2.36,2-3.39,3.18A9.78,9.78,0,0,0,515.31,627.54Z"/></g></svg>