<svg xmlns="http://www.w3.org/2000/svg" viewBox="0 0 274 111"><defs><style>.cls-1,.cls-2{fill:#0e0d0e;}.cls-2{opacity:0.45;}</style></defs><g id="Layer_3" data-name="Layer 3"><path class="cls-1" d="M47.24,45.85h10c4.72,0,5.13,0,6,0,6.65.14,9,1.3,14.07,1.88,6,.68,5.15-.67,17.08-.94,3.4-.08,3,0,14.07,0,7.31,0,9.26-.09,12.06-.94a24.92,24.92,0,0,0,9.05-4.7c3.46-2.93,4.89-6,6-5.64,1,.33,1,3,1,3.76,0,2.08-.63,2.87,0,3.76a2.83,2.83,0,0,0,3,.94c1-.39.78-1.38,2-2.82.79-.93,2.3-2.21,3-1.88s.37,1.52,0,5.64a26.46,26.46,0,0,0-.22,5.63c.2,1.19.42,1.31,2.12,5.36,1.91,4.53,2,5.37,2.12,5.93a7.44,7.44,0,0,1-1,5.64,6.79,6.79,0,0,1-5,2.82c-1.3.06-1.6-.45-5-1.88-2.83-1.17-4.27-1.76-6-1.88a8.46,8.46,0,0,0-5,.94,7.84,7.84,0,0,0-3,3.76,9.48,9.48,0,0,0-1,5.65c.14.81.66,3,5,6.58,5,4.16,6.44,3.12,10,6.58a18.11,18.11,0,0,1,5,8.46c.95,2.94.58,4.06,0,4.7a3.43,3.43,0,0,1-3,.94c-1-.16-1.63-.74-4-3.76s-2.26-3.06-3-3.76c-1.36-1.25-2.62-1.79-5-2.82-3.34-1.43-4.35-1.3-8-2.82-1.72-.71-2.94-1.33-4-1.88a56.86,56.86,0,0,1-8-4.7c-1.86-1.34-2.08-1.72-3-1.88-2.23-.38-4.67,1.17-6,2.82-1.95,2.37-2,5.29-2,10.34a35.06,35.06,0,0,1,0,4.7c-.17,1.56-.42,2.15,0,2.82.93,1.49,3.53.79,4,1.88s-1.17,2.89-3,3.76a8.16,8.16,0,0,1-8-.94c-2.18-1.67-2.46-4.24-3-9.4-.61-5.65-1-8.89,0-13.16.34-1.51.76-2.76,0-3.76-.87-1.17-3.27-1.11-8-.94-11.29.39-11.74.47-13.06,0-1.81-.64-3.75-1.76-5-.94-.6.39-.63.93-1,1.88-1.09,2.73-3.39,4.43-5,5.64-2.46,1.82-3.45,1.54-4,2.82-.79,1.8.5,3.88,1,4.7,1.62,2.62,4.31,3.9,6,4.7,3.51,1.63,5.35,1.34,6,2.82a3.65,3.65,0,0,1-1,3.76c-2.21,2.28-6.5,1.09-7,.94-1.86-.51-2-1.13-6-3.76-3.64-2.38-3.9-2.13-6-3.76-2.94-2.25-4.67-3.58-5-5.64s1-2.59,2-6.58c.28-1.12,1.47-5.84,0-6.58-1.13-.58-2.69,1.84-7,3.76-3,1.31-3.49.72-7,1.88a31.34,31.34,0,0,0-10,5.64c-3.5,2.74-6.23,4.87-6,7.52.09,1.28.8,1.67,1,3.76.13,1.33.36,3.7-1,4.7-1.67,1.24-5.16,0-7-1.88a7.48,7.48,0,0,1-2-5.64c.13-2.89,1.75-4.81,3-6.58,3.86-5.42,2.05-6.18,6-13.16,3.13-5.51,3.81-4.25,9-12.23,3.11-4.74,1.89-3.7,6-10.34,3.23-5.19,4.31-6.37,4-8.46s-1.69-3-6-7.52c-2.69-2.78-4.76-5.11-6-6.58a16.36,16.36,0,0,1-4-7.53c-.51-2.35-.31-4.32,0-7.52a22.17,22.17,0,0,1,1-5.64,18.55,18.55,0,0,1,4-6.58,21.13,21.13,0,0,1,9-5.64,9.46,9.46,0,0,1,4-1.88,9.77,9.77,0,0,1,4,0,2.86,2.86,0,0,1,1,1.88c.08,1.81-2.41,2.69-6,5.64a25.43,25.43,0,0,0-6,6.58,15.82,15.82,0,0,0-2,4.7,13.68,13.68,0,0,0,0,6.58c.82,3.08,2.9,5.23,7,9.41a45.71,45.71,0,0,0,4,3.76A35,35,0,0,0,47.24,45.85Z"/><path class="cls-2" d="M171.36,45.84h10c4.72,0,5.12,0,6,0,6.66.14,9,1.3,14.07,1.88,6,.68,5.15-.67,17.09-.94,3.4-.08,3,0,14.07,0,7.31,0,9.25-.09,12.06-.94a24.82,24.82,0,0,0,9-4.7c3.47-2.93,4.89-6,6-5.65,1,.34,1,3,1,3.77,0,2.08-.63,2.87,0,3.76a2.81,2.81,0,0,0,3,.94c1-.39.79-1.38,2-2.82.79-.93,2.31-2.21,3-1.88s.37,1.52,0,5.64a26.46,26.46,0,0,0-.22,5.63c.2,1.19.42,1.31,2.12,5.36,1.9,4.53,2.05,5.37,2.12,5.93a7.41,7.41,0,0,1-1,5.64,6.75,6.75,0,0,1-5,2.82c-1.31.06-1.6-.45-5-1.88-2.82-1.17-4.27-1.76-6-1.88a8.42,8.42,0,0,0-5,.94,7.87,7.87,0,0,0-3,3.76,9.58,9.58,0,0,0-1,5.65c.14.81.66,2.94,5,6.58,5,4.16,6.44,3.12,10.05,6.58a18.15,18.15,0,0,1,5,8.46c.95,2.94.57,4.06,0,4.7a3.44,3.44,0,0,1-3,.94c-1-.16-1.63-.74-4-3.76s-2.25-3.06-3-3.76c-1.36-1.25-2.62-1.79-5-2.82-3.34-1.43-4.34-1.3-8-2.82-1.72-.71-2.93-1.33-4-1.88a58,58,0,0,1-8-4.7c-1.85-1.34-2.08-1.72-3-1.88-2.23-.38-4.67,1.17-6,2.82-2,2.37-2,5.29-2,10.34a36.81,36.81,0,0,1,0,4.7c-.17,1.56-.42,2.15,0,2.82.93,1.49,3.53.79,4,1.88s-1.17,2.89-3,3.76a8.19,8.19,0,0,1-8-.94c-2.18-1.67-2.45-4.24-3-9.4-.61-5.65-1-8.89,0-13.16.34-1.51.75-2.76,0-3.76-.88-1.17-3.28-1.11-8-.94-11.29.39-11.74.47-13.07,0-1.81-.64-3.74-1.76-5-.94-.61.39-.63.93-1,1.88-1.08,2.73-3.38,4.43-5,5.64-2.46,1.82-3.46,1.54-4,2.82-.79,1.8.49,3.88,1,4.7,1.62,2.62,4.31,3.9,6,4.7,3.5,1.63,5.35,1.34,6,2.82a3.67,3.67,0,0,1-1,3.76c-2.21,2.28-6.5,1.09-7,.94-1.86-.51-2-1.13-6-3.76-3.64-2.38-3.91-2.13-6-3.76-3-2.25-4.67-3.58-5-5.64s1-2.59,2-6.58c.28-1.12,1.46-5.84,0-6.58-1.14-.58-2.69,1.84-7,3.76-3,1.31-3.5.72-7,1.88a31.41,31.41,0,0,0-10.05,5.64c-3.5,2.74-6.23,4.87-6,7.52.1,1.28.8,1.67,1,3.76.12,1.33.35,3.7-1,4.7-1.67,1.24-5.15,0-7-1.88a7.4,7.4,0,0,1-2-5.64c.13-2.89,1.75-4.81,3-6.58,3.87-5.42,2.05-6.18,6-13.16,3.14-5.51,3.82-4.25,9.05-12.23,3.1-4.74,1.89-3.7,6-10.34,3.23-5.19,4.31-6.37,4-8.46s-1.69-3-6-7.52c-2.69-2.78-4.76-5.11-6-6.59a16.2,16.2,0,0,1-4-7.52c-.51-2.35-.32-4.32,0-7.52a22.2,22.2,0,0,1,1-5.64,18.87,18.87,0,0,1,4-6.58,21.21,21.21,0,0,1,9-5.64,9.34,9.34,0,0,1,4-1.88,9.78,9.78,0,0,1,4,0,2.86,2.86,0,0,1,1,1.88c.08,1.81-2.41,2.69-6,5.64a25.08,25.08,0,0,0-6,6.58,15.56,15.56,0,0,0-2,4.7,13.68,13.68,0,0,0,0,6.58c.82,3.08,2.9,5.23,7,9.4a43.18,43.18,0,0,0,4,3.77A35,35,0,0,0,171.36,45.84Z"/></g></svg>