<svg xmlns="http://www.w3.org/2000/svg" viewBox="0 0 220 220"><defs><style>.cls-1{fill:#f2d9c4;}</style></defs><g id="Layer_9" data-name="Layer 9"><path class="cls-1" d="M37.35,69.16C55.1,71.8,69.74,74.1,80,75.73,118.54,81.87,137.57,86,186,94.19c13.59,2.31,24.53,4.11,30.91,5.15l-14.7,51.92Q145.1,143.76,85.76,134,57,129.23,28.87,124.12L3,94Z"/><path d="M48.6,110.58l.91-23.51,3.44.5L52,111.07Zm2.66-8.81L51.37,99l6.9,1a5.52,5.52,0,0,0,2.56-.17,3.72,3.72,0,0,0,1.81-1.27,3.85,3.85,0,0,0,.73-2.25,4.5,4.5,0,0,0-.55-2.43,5,5,0,0,0-1.69-1.78,6.28,6.28,0,0,0-2.52-.91l-6.9-1,.1-2.78,7.09,1a10.6,10.6,0,0,1,4.17,1.49,8.26,8.26,0,0,1,2.84,2.92,7.16,7.16,0,0,1,.93,4,5.91,5.91,0,0,1-4.26,5.72,9.22,9.22,0,0,1-4.23.27Z"/><path d="M70.45,113.74l.91-23.5,3.43.5-.9,23.5Zm2.7-9.89.1-2.68,6.87,1a4.73,4.73,0,0,0,3.46-.55,3.26,3.26,0,0,0,1.3-2.68,4.13,4.13,0,0,0-1.08-3,5.32,5.32,0,0,0-3.34-1.61l-6.91-1,.11-2.78,7,1a10.35,10.35,0,0,1,4.16,1.47,7.81,7.81,0,0,1,2.67,2.76,6.59,6.59,0,0,1,.84,3.56,5.78,5.78,0,0,1-1.1,3.35,5.58,5.58,0,0,1-2.85,1.92,9.63,9.63,0,0,1-4.24.22Zm11.92,12L76.27,104l3.29-.58,9.86,13.07Z"/><path d="M104.13,119a14.75,14.75,0,0,1-9-4.87,14,14,0,0,1-2.59-4.27,12.17,12.17,0,0,1-.81-4.85,10.78,10.78,0,0,1,1.17-4.59A10.51,10.51,0,0,1,95.77,97a10.78,10.78,0,0,1,4.16-2,13.09,13.09,0,0,1,5.06-.19,14.71,14.71,0,0,1,9,4.81,14,14,0,0,1,2.59,4.26,12.08,12.08,0,0,1,.8,4.88,10.5,10.5,0,0,1-4,8,11.1,11.1,0,0,1-4.16,2A12.71,12.71,0,0,1,104.13,119Zm0-3.06a9.14,9.14,0,0,0,4.83-.48,7.33,7.33,0,0,0,3.4-2.74,8.56,8.56,0,0,0,1.37-4.52,9.86,9.86,0,0,0-.54-3.7,9.76,9.76,0,0,0-1.81-3.14A10,10,0,0,0,108.57,99a11,11,0,0,0-3.7-1.2,9.15,9.15,0,0,0-4.81.46A7.33,7.33,0,0,0,96.68,101a8.49,8.49,0,0,0-1.37,4.51,10.16,10.16,0,0,0,.54,3.74,9.62,9.62,0,0,0,1.79,3.15,9.91,9.91,0,0,0,2.85,2.3A10.72,10.72,0,0,0,104.17,115.91Z"/><path d="M121.6,121.16l.91-23.51,3.43.5-.9,23.51Zm2.74-10,.11-2.91,13.23,1.91-.11,2.92Zm.4-10.26.11-2.92,13.85,2-.12,2.91Z"/><path d="M142.28,124.16l.91-23.51,3.43.5-.9,23.51Z"/><path d="M151.71,125.53l.91-23.51,3.43.5-.91,23.5Zm2.34.34.11-2.92,13.59,2-.11,2.92Z"/></g></svg>