<svg xmlns="http://www.w3.org/2000/svg" viewBox="0 0 545 111"><g id="Layer_10" data-name="Layer 10"><path d="M58.44,21.8q6.15,5.44,6.15,15.05A24.19,24.19,0,0,1,59,52.2,39.49,39.49,0,0,1,44.44,63.4a43.17,43.17,0,0,1-18.35,4.15,17.35,17.35,0,0,1-2-.1l.5-2.8a37.3,37.3,0,0,0,13.1-4.35,30.18,30.18,0,0,0,10.25-9,21.13,21.13,0,0,0,4-12.55q0-7.3-4.15-11.6t-12.55-4.3a34.89,34.89,0,0,0-14.35,3.3,52.66,52.66,0,0,0-13.35,8.6L4.89,32A64.19,64.19,0,0,1,22,20.7a48.6,48.6,0,0,1,20.3-4.35Q52.28,16.35,58.44,21.8ZM23.69,86.85,11.59,91V34.45l12.1-4.1Z"/><path d="M119.49,21.75A35,35,0,0,1,131,35.6a41.45,41.45,0,0,1,4.05,17.95,43.77,43.77,0,0,1-3.8,18.15A32.4,32.4,0,0,1,120,85.3a30.65,30.65,0,0,1-17.85,5.15,29.67,29.67,0,0,1-17.4-5.3,35,35,0,0,1-11.7-13.8A40.4,40.4,0,0,1,69,53.55a43.12,43.12,0,0,1,3.9-18.2,33.17,33.17,0,0,1,11.4-13.7,30.59,30.59,0,0,1,17.9-5.2A29.25,29.25,0,0,1,119.49,21.75ZM88.64,25.8a21.41,21.41,0,0,0-5.55,9.45A40.49,40.49,0,0,0,81.39,47,61,61,0,0,0,83.94,64.3a35.19,35.19,0,0,0,8,14.45,18,18,0,0,0,13.75,5.8,13.21,13.21,0,0,0,9.75-3.85A22.37,22.37,0,0,0,121,71.1a41,41,0,0,0,1.7-11.65,60.11,60.11,0,0,0-2.55-17.05,35.7,35.7,0,0,0-8-14.5,17.9,17.9,0,0,0-13.65-5.85A13.52,13.52,0,0,0,88.64,25.8Z"/><path d="M193.54,21.8q6.15,5.44,6.15,15.05a23.66,23.66,0,0,1-3.55,12.45,34.34,34.34,0,0,1-9.6,10.15,43.8,43.8,0,0,1-13.35,6.4L183.69,79a7.11,7.11,0,0,0,5.6,2.9q4,0,9.5-5.5l2.1,1.9a40,40,0,0,1-8.1,8.6,15,15,0,0,1-9.3,3.5,11.3,11.3,0,0,1-6.05-1.7,25.19,25.19,0,0,1-6.15-6.1l-11.7-15.1.6-2.8a35.91,35.91,0,0,0,12.95-4.35,29.61,29.61,0,0,0,10-9A21.54,21.54,0,0,0,187,38.75q0-7.3-4.15-11.6t-12.55-4.3a34.89,34.89,0,0,0-14.35,3.3,52.66,52.66,0,0,0-13.35,8.6L140,32a64.19,64.19,0,0,1,17.1-11.25,48.6,48.6,0,0,1,20.3-4.35Q187.38,16.35,193.54,21.8ZM158.59,86.85l-12.1,4.2V34.35l12.1-4Z"/><path d="M256.09,16.55a28.5,28.5,0,0,1-9.2,8.3,22.76,22.76,0,0,1-11.5,3.3,17.83,17.83,0,0,0-2.75,4.6,14.05,14.05,0,0,0-.85,5.1v32.3a21.94,21.94,0,0,1-3.15,12.1,30.19,30.19,0,0,1-9.75,9l-2.1-2.4q2.6-3.3,2.6-9.7V43.65A14.41,14.41,0,0,1,222,35.5a37.42,37.42,0,0,1,6.55-7.35l-13.3-.1a12.89,12.89,0,0,0-6.2,1.5,17.48,17.48,0,0,0-5.3,4.6l-2.2-2.1a47.31,47.31,0,0,1,9.65-9.8,18.65,18.65,0,0,1,11.25-3.6h14.8a56.36,56.36,0,0,0,9.7-.85,15,15,0,0,0,7.4-3.05Z"/><path d="M281.69,32.8a13,13,0,0,0-.9,5.05v14.2h6.7q8.7,0,14.1-4.1l1.7,1.8q-5.7,8.8-18.4,8.8h-4.1v19a21.79,21.79,0,0,1-3.15,12,30.27,30.27,0,0,1-9.65,9l-2.1-2.4q2.49-2.7,2.5-9.7V58.55h-9.1l5-6.5h4.1v-8.4q0-7.2,9.4-15.5l-13.7-.1q-6.4,0-11.6,6.1l-2.1-2.1a45.36,45.36,0,0,1,9.55-9.8,18.79,18.79,0,0,1,11.35-3.6h23.9a56.36,56.36,0,0,0,9.7-.85,15.65,15.65,0,0,0,7.5-3.05l1.5,1.8a26.6,26.6,0,0,1-8.8,8.25,23.49,23.49,0,0,1-12.3,3.35h-8.3A21.77,21.77,0,0,0,281.69,32.8Z"/><path d="M363.59,21.75A35,35,0,0,1,375.14,35.6a41.45,41.45,0,0,1,4.05,17.95,43.77,43.77,0,0,1-3.8,18.15,32.4,32.4,0,0,1-11.25,13.6,30.65,30.65,0,0,1-17.85,5.15,29.67,29.67,0,0,1-17.4-5.3,35,35,0,0,1-11.7-13.8,40.4,40.4,0,0,1-4.1-17.8,43.12,43.12,0,0,1,3.9-18.2,33.17,33.17,0,0,1,11.4-13.7,30.59,30.59,0,0,1,17.9-5.2A29.25,29.25,0,0,1,363.59,21.75ZM332.74,25.8a21.41,21.41,0,0,0-5.55,9.45,40.49,40.49,0,0,0-1.7,11.7A61,61,0,0,0,328,64.3a35.19,35.19,0,0,0,8,14.45,18,18,0,0,0,13.75,5.8,13.21,13.21,0,0,0,9.75-3.85,22.37,22.37,0,0,0,5.55-9.6,41,41,0,0,0,1.7-11.65,60.11,60.11,0,0,0-2.55-17.05,35.7,35.7,0,0,0-8-14.5,17.9,17.9,0,0,0-13.65-5.85A13.52,13.52,0,0,0,332.74,25.8Z"/><path d="M431.54,18.75a8.66,8.66,0,0,1,3.75,7.6,13,13,0,0,1-3.05,8.25,26.39,26.39,0,0,1-8.2,6.65,41.52,41.52,0,0,1-11.35,4.1l-1.1-2.7a23.37,23.37,0,0,0,8.3-6,11.93,11.93,0,0,0,2.9-7.8,6.94,6.94,0,0,0-1.75-5,6.51,6.51,0,0,0-5-1.85,11.56,11.56,0,0,0-7.6,2.55,15.25,15.25,0,0,0-4.6,6.5,22.76,22.76,0,0,0-1.5,8.15v30.2a13,13,0,0,1-.85,5,14.84,14.84,0,0,1-2.75,4.15l.6.4a17.65,17.65,0,0,1,9.5-2.8,47.53,47.53,0,0,1,7.9.8l2.85.4a32.07,32.07,0,0,0,4.45.3,11.18,11.18,0,0,0,6.25-1.8,21.46,21.46,0,0,0,5.15-4.9l2.4,1.7-8.1,17.5a112.23,112.23,0,0,1-13-2q-4.8-.9-8.4-1.4a57.37,57.37,0,0,0-7.8-.5,21,21,0,0,0-12.2,3.8l-3-2.8a11.39,11.39,0,0,0,3.35-4.45,17.71,17.71,0,0,0,1.05-6.65V49.05a34.58,34.58,0,0,1,4-16.7,30.2,30.2,0,0,1,11.4-11.85,32.43,32.43,0,0,1,16.85-4.35A16.23,16.23,0,0,1,431.54,18.75Z"/><path d="M459.09,87l-12.5,4V19.75l12.5-3.9Z"/><path d="M521.89,21.75A35,35,0,0,1,533.44,35.6a41.45,41.45,0,0,1,4,17.95,43.77,43.77,0,0,1-3.8,18.15,32.4,32.4,0,0,1-11.25,13.6,30.65,30.65,0,0,1-17.85,5.15,29.67,29.67,0,0,1-17.4-5.3,35,35,0,0,1-11.7-13.8,40.4,40.4,0,0,1-4.1-17.8,43.12,43.12,0,0,1,3.9-18.2,33.17,33.17,0,0,1,11.4-13.7,30.59,30.59,0,0,1,17.9-5.2A29.25,29.25,0,0,1,521.89,21.75ZM491,25.8a21.41,21.41,0,0,0-5.55,9.45,40.49,40.49,0,0,0-1.7,11.7,61,61,0,0,0,2.55,17.35,35.19,35.19,0,0,0,8,14.45,18,18,0,0,0,13.75,5.8,13.21,13.21,0,0,0,9.75-3.85,22.37,22.37,0,0,0,5.55-9.6,41,41,0,0,0,1.7-11.65,60.11,60.11,0,0,0-2.55-17.05,35.7,35.7,0,0,0-8-14.5,17.9,17.9,0,0,0-13.65-5.85A13.52,13.52,0,0,0,491,25.8Z"/></g></svg>