<svg xmlns="http://www.w3.org/2000/svg" viewBox="0 0 600 600"><g id="Layer_10" data-name="Layer 10"><path d="M88.44,250.8q6.15,5.44,6.15,15.05A24.19,24.19,0,0,1,89,281.2a39.49,39.49,0,0,1-14.55,11.2,43.17,43.17,0,0,1-18.35,4.15,17.35,17.35,0,0,1-2-.1l.5-2.8a37.3,37.3,0,0,0,13.1-4.35,30.18,30.18,0,0,0,10.25-9,21.13,21.13,0,0,0,4-12.55q0-7.31-4.15-11.6t-12.55-4.3a34.89,34.89,0,0,0-14.35,3.3,52.66,52.66,0,0,0-13.35,8.6l-2.6-2.8A64.19,64.19,0,0,1,52,249.7a48.6,48.6,0,0,1,20.3-4.35Q82.28,245.35,88.44,250.8ZM53.69,315.85,41.59,320v-56.5l12.1-4.1Z"/><path d="M149.49,250.75A35,35,0,0,1,161,264.6a41.45,41.45,0,0,1,4.05,17.95,43.77,43.77,0,0,1-3.8,18.15A32.4,32.4,0,0,1,150,314.3a30.65,30.65,0,0,1-17.85,5.15,29.67,29.67,0,0,1-17.4-5.3,35,35,0,0,1-11.7-13.8,40.4,40.4,0,0,1-4.1-17.8,43.12,43.12,0,0,1,3.9-18.2,33.17,33.17,0,0,1,11.4-13.7,30.59,30.59,0,0,1,17.9-5.2A29.25,29.25,0,0,1,149.49,250.75Zm-30.85,4.05a21.41,21.41,0,0,0-5.55,9.45,40.49,40.49,0,0,0-1.7,11.7,61,61,0,0,0,2.55,17.35,35.19,35.19,0,0,0,8,14.45,18,18,0,0,0,13.75,5.8,13.21,13.21,0,0,0,9.75-3.85,22.37,22.37,0,0,0,5.55-9.6,41,41,0,0,0,1.7-11.65,60.11,60.11,0,0,0-2.55-17.05,35.7,35.7,0,0,0-8-14.5,17.9,17.9,0,0,0-13.65-5.85A13.52,13.52,0,0,0,118.64,254.8Z"/><path d="M223.54,250.8q6.15,5.44,6.15,15.05a23.66,23.66,0,0,1-3.55,12.45,34.34,34.34,0,0,1-9.6,10.15,43.8,43.8,0,0,1-13.35,6.4l10.5,13.1a7.11,7.11,0,0,0,5.6,2.9q4,0,9.5-5.5l2.1,1.9a40,40,0,0,1-8.1,8.6,15,15,0,0,1-9.3,3.5,11.3,11.3,0,0,1-6.05-1.7,25.19,25.19,0,0,1-6.15-6.1l-11.7-15.1.6-2.8a35.91,35.91,0,0,0,12.95-4.35,29.61,29.61,0,0,0,10-9A21.54,21.54,0,0,0,217,267.75q0-7.31-4.15-11.6t-12.55-4.3a34.89,34.89,0,0,0-14.35,3.3,52.66,52.66,0,0,0-13.35,8.6L170,261a64.19,64.19,0,0,1,17.1-11.25,48.6,48.6,0,0,1,20.3-4.35Q217.38,245.35,223.54,250.8Zm-34.95,65.05-12.1,4.2v-56.7l12.1-4Z"/><path d="M286.09,245.55a28.5,28.5,0,0,1-9.2,8.3,22.76,22.76,0,0,1-11.5,3.3,17.83,17.83,0,0,0-2.75,4.6,14.05,14.05,0,0,0-.85,5.1v32.3a21.94,21.94,0,0,1-3.15,12.1,30.19,30.19,0,0,1-9.75,9l-2.1-2.4q2.6-3.3,2.6-9.7v-35.5A14.41,14.41,0,0,1,252,264.5a37.42,37.42,0,0,1,6.55-7.35l-13.3-.1a12.89,12.89,0,0,0-6.2,1.5,17.48,17.48,0,0,0-5.3,4.6l-2.2-2.1a47.31,47.31,0,0,1,9.65-9.8,18.65,18.65,0,0,1,11.25-3.6h14.8a56.36,56.36,0,0,0,9.7-.85,15,15,0,0,0,7.4-3.05Z"/><path d="M311.69,261.8a13,13,0,0,0-.9,5.05v14.2h6.7q8.7,0,14.1-4.1l1.7,1.8q-5.7,8.81-18.4,8.8h-4.1v19a21.79,21.79,0,0,1-3.15,11.95,30.27,30.27,0,0,1-9.65,9.05l-2.1-2.4q2.49-2.7,2.5-9.7v-27.9h-9.1l5-6.5h4.1v-8.4q0-7.2,9.4-15.5l-13.7-.1q-6.4,0-11.6,6.1l-2.1-2.1a45.36,45.36,0,0,1,9.55-9.8,18.79,18.79,0,0,1,11.35-3.6h23.9a56.36,56.36,0,0,0,9.7-.85,15.65,15.65,0,0,0,7.5-3.05l1.5,1.8a26.6,26.6,0,0,1-8.8,8.25,23.49,23.49,0,0,1-12.3,3.35h-8.3A21.77,21.77,0,0,0,311.69,261.8Z"/><path d="M393.59,250.75a35,35,0,0,1,11.55,13.85,41.45,41.45,0,0,1,4.05,17.95,43.77,43.77,0,0,1-3.8,18.15,32.4,32.4,0,0,1-11.25,13.6,30.65,30.65,0,0,1-17.85,5.15,29.67,29.67,0,0,1-17.4-5.3,35,35,0,0,1-11.7-13.8,40.4,40.4,0,0,1-4.1-17.8,43.12,43.12,0,0,1,3.9-18.2,33.17,33.17,0,0,1,11.4-13.7,30.59,30.59,0,0,1,17.9-5.2A29.25,29.25,0,0,1,393.59,250.75Zm-30.85,4.05a21.41,21.41,0,0,0-5.55,9.45,40.49,40.49,0,0,0-1.7,11.7A61,61,0,0,0,358,293.3a35.19,35.19,0,0,0,8,14.45,18,18,0,0,0,13.75,5.8,13.21,13.21,0,0,0,9.75-3.85,22.37,22.37,0,0,0,5.55-9.6,41,41,0,0,0,1.7-11.65,60.11,60.11,0,0,0-2.55-17.05,35.7,35.7,0,0,0-8-14.5,17.9,17.9,0,0,0-13.65-5.85A13.52,13.52,0,0,0,362.74,254.8Z"/><path d="M461.54,247.75a8.66,8.66,0,0,1,3.75,7.6,13,13,0,0,1-3.05,8.25,26.39,26.39,0,0,1-8.2,6.65,41.52,41.52,0,0,1-11.35,4.1l-1.1-2.7a23.37,23.37,0,0,0,8.3-6,11.93,11.93,0,0,0,2.9-7.8,6.94,6.94,0,0,0-1.75-5,6.51,6.51,0,0,0-5-1.85,11.56,11.56,0,0,0-7.6,2.55,15.25,15.25,0,0,0-4.6,6.5,22.76,22.76,0,0,0-1.5,8.15v30.2a13,13,0,0,1-.85,4.95,14.84,14.84,0,0,1-2.75,4.15l.6.4a17.65,17.65,0,0,1,9.5-2.8,47.53,47.53,0,0,1,7.9.8l2.85.4a32.07,32.07,0,0,0,4.45.3,11.18,11.18,0,0,0,6.25-1.8,21.46,21.46,0,0,0,5.15-4.9l2.4,1.7-8.1,17.5a112.23,112.23,0,0,1-13-2q-4.8-.9-8.4-1.4a57.37,57.37,0,0,0-7.8-.5,21,21,0,0,0-12.2,3.8l-3-2.8a11.39,11.39,0,0,0,3.35-4.45,17.71,17.71,0,0,0,1.05-6.65v-27.1a34.58,34.58,0,0,1,4-16.7,30.2,30.2,0,0,1,11.4-11.85,32.43,32.43,0,0,1,16.85-4.35A16.23,16.23,0,0,1,461.54,247.75Z"/><path d="M489.09,316l-12.5,4v-71.2l12.5-3.9Z"/><path d="M551.89,250.75a35,35,0,0,1,11.55,13.85,41.45,41.45,0,0,1,4,17.95,43.77,43.77,0,0,1-3.8,18.15,32.4,32.4,0,0,1-11.25,13.6,30.65,30.65,0,0,1-17.85,5.15,29.67,29.67,0,0,1-17.4-5.3,35,35,0,0,1-11.7-13.8,40.4,40.4,0,0,1-4.1-17.8,43.12,43.12,0,0,1,3.9-18.2,33.17,33.17,0,0,1,11.4-13.7,30.59,30.59,0,0,1,17.9-5.2A29.25,29.25,0,0,1,551.89,250.75ZM521,254.8a21.41,21.41,0,0,0-5.55,9.45,40.49,40.49,0,0,0-1.7,11.7,61,61,0,0,0,2.55,17.35,35.19,35.19,0,0,0,8,14.45,18,18,0,0,0,13.75,5.8,13.21,13.21,0,0,0,9.75-3.85,22.37,22.37,0,0,0,5.55-9.6,41,41,0,0,0,1.7-11.65,60.11,60.11,0,0,0-2.55-17.05,35.7,35.7,0,0,0-8-14.5,17.9,17.9,0,0,0-13.65-5.85A13.52,13.52,0,0,0,521,254.8Z"/></g></svg>