<svg xmlns="http://www.w3.org/2000/svg" viewBox="0 0 550 550"><defs><style>.cls-1{fill:#001200;}.cls-2{fill:#bc0d0d;}</style></defs><g id="Layer_8" data-name="Layer 8"><path class="cls-1" d="M428,335l-85,1q.5-55.5,1-111h85Q428.51,280,428,335Z"/><path class="cls-1" d="M231,177l0,105,0,105,128.51-52.46,0-105Z"/><path class="cls-1" d="M173.43,276.5c0-23.28,10.23-42.57,23.57-46a17.06,17.06,0,0,0-4.22-.53C177.44,230,165,250.82,165,276.5S177.44,323,192.78,323a17.06,17.06,0,0,0,4.22-.53C183.66,319.07,173.43,299.78,173.43,276.5Z"/><path class="cls-1" d="M143.34,276.5c0-36.3,12.87-66.37,29.66-71.67a17.43,17.43,0,0,0-5.31-.83c-19.31,0-35,32.46-35,72.5s15.65,72.5,35,72.5a17.43,17.43,0,0,0,5.31-.83C156.21,342.87,143.34,312.8,143.34,276.5Z"/><path class="cls-1" d="M201.49,281.5c0-10.26,5-18.77,11.51-20.27a9.43,9.43,0,0,0-2.06-.23c-7.49,0-13.57,9.18-13.57,20.5s6.08,20.5,13.57,20.5a9.43,9.43,0,0,0,2.06-.23C206.48,300.27,201.49,291.76,201.49,281.5Z"/><rect class="cls-2" x="294.5" y="106.5" width="11.5" height="362" transform="translate(214.77 -119.32) rotate(34.38)"/></g></svg>