<svg xmlns="http://www.w3.org/2000/svg" viewBox="0 0 550 550"><defs><style>.cls-1{fill:#001200;}</style></defs><g id="Layer_8" data-name="Layer 8"><path class="cls-1" d="M395.18,340.27l-85,1q.49-55.5,1-111h85Q395.67,285.27,395.18,340.27Z"/><path class="cls-1" d="M198.21,182.25l0,105,0,105,128.51-52.46,0-105Z"/><path class="cls-1" d="M140.61,281.77c0-23.28,10.22-42.56,23.57-46a17.13,17.13,0,0,0-4.22-.54c-15.34,0-27.78,20.82-27.78,46.5s12.44,46.5,27.78,46.5a17.12,17.12,0,0,0,4.22-.53C150.83,324.34,140.61,305.05,140.61,281.77Z"/><path class="cls-1" d="M110.52,281.77c0-36.3,12.87-66.36,29.66-71.67a17.79,17.79,0,0,0-5.31-.83c-19.31,0-35,32.46-35,72.5s15.65,72.5,35,72.5a17.48,17.48,0,0,0,5.31-.83C123.39,348.14,110.52,318.07,110.52,281.77Z"/><path class="cls-1" d="M168.67,286.77c0-10.26,5-18.76,11.51-20.26a8.86,8.86,0,0,0-2.06-.24c-7.49,0-13.57,9.18-13.57,20.5s6.08,20.5,13.57,20.5a9.43,9.43,0,0,0,2.06-.23C173.66,305.54,168.67,297,168.67,286.77Z"/></g></svg>