<svg xmlns="http://www.w3.org/2000/svg" viewBox="0 0 220 220"><defs><style>.cls-1{fill:#f2d9c4;}</style></defs><g id="Layer_9" data-name="Layer 9"><path class="cls-1" d="M190.94,128.78c-18.16,3.33-33.19,6-43.72,7.79-39.58,6.84-59.47,9.2-109.41,17.32-14,2.28-25.26,4.17-31.81,5.27L3.21,104.54q58.14-11.67,119.2-21.92,29.6-4.94,58.68-9.32l35.13,20.37Z"/><path d="M33.1,115.21l1-2.81L54.27,110l-1,2.81Zm1.18,18.85,8-22,3.39-.4-8,22Z"/><path d="M50.05,132.19l8.22-22.67,3.35-.4L53.4,131.79Zm2.28-.28,1-2.81,14.2-1.69-1,2.81ZM56,121.69,57,119l13-1.55-1,2.71Zm3.49-9.63,1-2.81,14-1.67-1,2.81Z"/><path d="M71.1,129.68,79.32,107l2.35-.28,4.77,14.53-1.6.19,16.2-17,2.36-.28-8.22,22.67-3.35.4,6.26-17.28.68.11L86,123.46l-2.39.29L79.9,112.29l.82-.29-6.27,17.28Z"/><path d="M99.17,126.33l18.39-23.87,2.43-.29,1.87,21.46-3.64.43-1.39-18.17,1.28-.16L102.78,125.9Zm6.72-5.7,1-2.68,13-1.55-1,2.68Z"/><path d="M141,121.67a6.67,6.67,0,0,1-4.56-.84,5,5,0,0,1-2.18-3.63,12.26,12.26,0,0,1,.89-6,21.28,21.28,0,0,1,3.57-6.34,20.27,20.27,0,0,1,5.09-4.46,13.86,13.86,0,0,1,5.54-2,6.82,6.82,0,0,1,4.59.81,5,5,0,0,1,2.16,3.6,12.48,12.48,0,0,1-.92,6,21.39,21.39,0,0,1-3.58,6.35,20.23,20.23,0,0,1-5.07,4.48A13.91,13.91,0,0,1,141,121.67Zm1-2.9a9.15,9.15,0,0,0,3.8-1.41,13.4,13.4,0,0,0,3.41-3.23,18.89,18.89,0,0,0,2.61-4.94,11.73,11.73,0,0,0,.88-4.7,3.36,3.36,0,0,0-1.29-2.66,4.36,4.36,0,0,0-3.1-.56,9.06,9.06,0,0,0-3.78,1.38,12.64,12.64,0,0,0-3.4,3.21,18.49,18.49,0,0,0-2.58,4.91,12.14,12.14,0,0,0-.92,4.74,3.37,3.37,0,0,0,1.27,2.67A4.3,4.3,0,0,0,142,118.77Z"/><path d="M161.42,119.23a9.22,9.22,0,0,1-4.18-.3,4.24,4.24,0,0,1-2.45-2l3-2.36a2.74,2.74,0,0,0,1.61,1.55,6,6,0,0,0,3,.28,9.57,9.57,0,0,0,5.74-2.82,7.55,7.55,0,0,0,1.63-2.62,3.77,3.77,0,0,0,.22-2.46,2.09,2.09,0,0,0-1.31-1.36,5,5,0,0,0-2.43-.23,13,13,0,0,0-2.77.64,12.6,12.6,0,0,0-2.67,1.38l.74-2a9.87,9.87,0,0,1,1.8-1.28,11.47,11.47,0,0,1,2-.86,13.33,13.33,0,0,1,2.4-.51,6.79,6.79,0,0,1,4,.47,3.34,3.34,0,0,1,1.77,2.32,6.59,6.59,0,0,1-.41,3.61,11.37,11.37,0,0,1-2.55,4,15.49,15.49,0,0,1-4.16,3A15.12,15.12,0,0,1,161.42,119.23Zm-.59-10.34-1.22-1.44,4.9-10.59,3.07-.36-5.15,10.89Zm3.36-9.36.32-2.67,13-1.55-1,2.74Z"/></g></svg>