<svg xmlns="http://www.w3.org/2000/svg" viewBox="0 0 220 220"><defs><style>.cls-1{fill:#f2d9c4;}</style></defs><g id="Layer_9" data-name="Layer 9"><path class="cls-1" d="M190,139.71c-18.29,2.58-33.41,4.61-44,6-39.83,5.24-59.78,6.87-110,13-14.08,1.72-25.41,3.16-32,4v-51q58.59-9.21,120-17,29.77-3.75,59-7l34,20Z"/><path d="M29.31,127.3l1.07-2.81L51.26,122l-1.07,2.81Zm1.14,18.87,8.36-22.06,3.52-.42L34,145.75Z"/><path d="M46.78,144.22l8.62-22.71,3.47-.42-8.61,22.72Zm2.37-.28,1.07-2.82,14.71-1.75-1.07,2.82ZM53,133.7l1-2.72,13.49-1.61-1,2.72ZM56.7,124l1.07-2.81,14.52-1.73-1.07,2.81Z"/><path d="M68.59,141.62l8.62-22.71,2.44-.29,4.87,14.52-1.67.19,16.87-17.1,2.43-.29-8.61,22.72-3.47.41,6.56-17.31.7.1L84.07,135.35l-2.48.29-3.81-11.45.85-.29-6.56,17.31Z"/><path d="M97.68,138.16l19.15-24,2.51-.3,1.85,21.47-3.77.44-1.37-18.18,1.33-.16-16,20.25Zm7-5.73,1-2.69,13.49-1.6-1,2.68Z"/><path d="M141,133.32a7.1,7.1,0,0,1-4.72-.81,5,5,0,0,1-2.24-3.63,11.88,11.88,0,0,1,.95-6,21.22,21.22,0,0,1,3.73-6.35A20.79,20.79,0,0,1,144,112a14.89,14.89,0,0,1,5.75-2,7.21,7.21,0,0,1,4.75.79,4.89,4.89,0,0,1,2.22,3.6,12.15,12.15,0,0,1-1,6,21.69,21.69,0,0,1-3.74,6.37,21.14,21.14,0,0,1-5.27,4.5A14.73,14.73,0,0,1,141,133.32Zm1-2.9a9.6,9.6,0,0,0,4-1.43,13.87,13.87,0,0,0,3.54-3.24,18.48,18.48,0,0,0,2.73-5,11.24,11.24,0,0,0,.93-4.7,3.26,3.26,0,0,0-1.32-2.65,4.6,4.6,0,0,0-3.21-.56,9.74,9.74,0,0,0-3.92,1.41,13.06,13.06,0,0,0-3.53,3.21,18.8,18.8,0,0,0-2.7,4.93,11.8,11.8,0,0,0-1,4.74,3.31,3.31,0,0,0,1.3,2.68A4.57,4.57,0,0,0,142,130.42Z"/><path d="M162.16,130.8a9.74,9.74,0,0,1-4.25-.29,4.37,4.37,0,0,1-2.53-2l3.16-2.37a2.78,2.78,0,0,0,1.64,1.54,6.09,6.09,0,0,0,3,.28,9.76,9.76,0,0,0,3.19-.93,9.26,9.26,0,0,0,2.56-1.85,7.36,7.36,0,0,0,1.62-2.5,3.53,3.53,0,0,0,.21-2.34,2.2,2.2,0,0,0-1.39-1.35,6,6,0,0,0-2.89-.2,10.18,10.18,0,0,0-1.34.23,11.48,11.48,0,0,0-1.37.4l2.15-1.94a11.78,11.78,0,0,1,1.69-.64,10.88,10.88,0,0,1,1.69-.36,6,6,0,0,1,3.39.41,3.2,3.2,0,0,1,1.72,2.08,5.58,5.58,0,0,1-.38,3.45,11.06,11.06,0,0,1-2.61,4,15.9,15.9,0,0,1-9.26,4.46Zm.86-19.48,1-2.74,15.63-1.87-.7,1.87-3.37,1.24Zm.75,8.07.71-1.87,10.37-8.45,4.14-.49-10.66,8.64Z"/></g></svg>