<svg xmlns="http://www.w3.org/2000/svg" xmlns:xlink="http://www.w3.org/1999/xlink" width="230" height="230" viewBox="0 0 230 230">
  <defs>
    <clipPath id="clip-Artboard_5">
      <rect width="230" height="230"/>
    </clipPath>
  </defs>
  <g id="Artboard_5" data-name="Artboard – 5" clip-path="url(#clip-Artboard_5)">
    <g id="Group_12" data-name="Group 12" transform="translate(25.5 7.043)">
      <g id="Layer_6" data-name="Layer 6" transform="translate(-644.421 66.258)">
        <path id="Path_1" data-name="Path 1" d="M173.069,212.277h13.1c5.417.131,7.328,1.2,11.457,1.705,4.878.62,4.187-.62,13.907-.864,2.764-.074,2.476.04,11.452,0,5.951-.028,7.537-.08,9.819-.864a19.42,19.42,0,0,0,7.364-4.314c2.821-2.689,3.978-5.542,4.91-5.178.8.307.811,2.751.817,3.45,0,1.915-.523,2.637,0,3.45a2.142,2.142,0,0,0,2.455.864c.8-.352.639-1.262,1.633-2.586.644-.853,1.879-2.029,2.455-1.705s.3,1.4,0,5.178a27.316,27.316,0,0,0-.178,5.167c.162,1.1.34,1.211,1.727,4.922,1.57,4.155,1.67,4.934,1.727,5.445a7.552,7.552,0,0,1-.822,5.178,5.425,5.425,0,0,1-4.088,2.592c-1.047.045-1.3-.421-4.093-1.705-2.3-1.08-3.475-1.62-4.91-1.705a6.182,6.182,0,0,0-4.088.864,7.144,7.144,0,0,0-2.455,3.45,9.653,9.653,0,0,0-.816,5.178c.115.75.523,2.711,4.088,6.042,4.072,3.825,5.234,2.842,8.181,6.042a17.311,17.311,0,0,1,4.093,7.77c.769,2.694.466,3.729,0,4.314a2.631,2.631,0,0,1-2.455.864c-.8-.153-1.329-.688-3.271-3.456a33.868,33.868,0,0,0-2.455-3.45,12.723,12.723,0,0,0-4.093-2.592c-2.716-1.307-3.538-1.188-6.543-2.586-1.4-.654-2.392-1.222-3.277-1.705a45.131,45.131,0,0,1-6.543-4.314c-1.513-1.228-1.691-1.58-2.455-1.705-1.816-.341-3.8,1.08-4.91,2.592-1.57,2.171-1.607,4.854-1.633,9.492a34.851,34.851,0,0,1,0,4.314c-.141,1.432-.345,1.978,0,2.592.759,1.364,2.873.722,3.271,1.705s-.953,2.654-2.455,3.456a6.066,6.066,0,0,1-6.553-.938c-1.774-1.535-2-3.9-2.45-8.628-.5-5.19-.785-8.168,0-12.084.272-1.381.612-2.529,0-3.45-.717-1.074-2.669-1.017-6.548-.864-9.191.364-9.557.426-10.636,0-1.476-.568-3.051-1.614-4.088-.864-.5.358-.523.858-.822,1.705a12.093,12.093,0,0,1-4.088,5.178c-2.01,1.671-2.816,1.415-3.277,2.586-.644,1.654.4,3.558.822,4.314a10.927,10.927,0,0,0,4.91,4.314c2.853,1.5,4.355,1.228,4.9,2.592a3.648,3.648,0,0,1-.816,3.45c-1.8,2.086-5.292,1-5.726.864-1.513-.472-1.643-1.04-4.91-3.45-2.957-2.183-3.177-1.955-4.91-3.456-2.392-2.069-3.795-3.28-4.088-5.178s.822-2.37,1.633-6.036c.23-1.023,1.193-5.36,0-6.042-.926-.534-2.193,1.705-5.726,3.45-2.418,1.205-2.842.665-5.726,1.705a24.911,24.911,0,0,0-8.181,5.178c-2.847,2.512-5.072,4.473-4.91,6.9.079,1.177.654,1.535.817,3.456.1,1.216.293,3.41-.817,4.314-1.361,1.137-4.187,0-5.726-1.705a7.415,7.415,0,0,1-1.638-5.178c.1-2.649,1.429-4.417,2.455-6.042,3.14-4.974,1.67-5.684,4.91-12.079,2.554-5.059,3.109-3.9,7.364-11.22,2.528-4.354,1.539-3.41,4.91-9.492,2.617-4.763,3.512-5.849,3.271-7.77s-1.377-2.785-4.91-6.9c-2.188-2.552-3.873-4.7-4.91-6.042a15.66,15.66,0,0,1-3.276-6.9,23.693,23.693,0,0,1,0-6.906,22.679,22.679,0,0,1,.817-5.178,17.948,17.948,0,0,1,3.266-6.019,17.089,17.089,0,0,1,7.37-5.2,7.264,7.264,0,0,1,6.548-1.705,2.741,2.741,0,0,1,.817,1.705c.063,1.665-1.963,2.467-4.91,5.178a22.314,22.314,0,0,0-4.91,6.036,15.387,15.387,0,0,0-1.633,4.32,14.013,14.013,0,0,0,0,6.036c.665,2.842,2.361,4.8,5.726,8.634a38.568,38.568,0,0,0,3.271,3.45A27.239,27.239,0,0,0,173.069,212.277Z" transform="translate(488 -179)" fill="#0e0d0e"/>
      </g>
      <g id="Layer_6-2" data-name="Layer 6" transform="translate(-543.823 66.258)" opacity="0.409">
        <path id="Path_1-2" data-name="Path 1" d="M173.069,212.277h13.1c5.417.131,7.328,1.2,11.457,1.705,4.878.62,4.187-.62,13.907-.864,2.764-.074,2.476.04,11.452,0,5.951-.028,7.537-.08,9.819-.864a19.42,19.42,0,0,0,7.364-4.314c2.821-2.689,3.978-5.542,4.91-5.178.8.307.811,2.751.817,3.45,0,1.915-.523,2.637,0,3.45a2.142,2.142,0,0,0,2.455.864c.8-.352.639-1.262,1.633-2.586.644-.853,1.879-2.029,2.455-1.705s.3,1.4,0,5.178a27.316,27.316,0,0,0-.178,5.167c.162,1.1.34,1.211,1.727,4.922,1.57,4.155,1.67,4.934,1.727,5.445a7.552,7.552,0,0,1-.822,5.178,5.425,5.425,0,0,1-4.088,2.592c-1.047.045-1.3-.421-4.093-1.705-2.3-1.08-3.475-1.62-4.91-1.705a6.182,6.182,0,0,0-4.088.864,7.144,7.144,0,0,0-2.455,3.45,9.653,9.653,0,0,0-.816,5.178c.115.75.523,2.711,4.088,6.042,4.072,3.825,5.234,2.842,8.181,6.042a17.311,17.311,0,0,1,4.093,7.77c.769,2.694.466,3.729,0,4.314a2.631,2.631,0,0,1-2.455.864c-.8-.153-1.329-.688-3.271-3.456a33.868,33.868,0,0,0-2.455-3.45,12.723,12.723,0,0,0-4.093-2.592c-2.716-1.307-3.538-1.188-6.543-2.586-1.4-.654-2.392-1.222-3.277-1.705a45.131,45.131,0,0,1-6.543-4.314c-1.513-1.228-1.691-1.58-2.455-1.705-1.816-.341-3.8,1.08-4.91,2.592-1.57,2.171-1.607,4.854-1.633,9.492a34.851,34.851,0,0,1,0,4.314c-.141,1.432-.345,1.978,0,2.592.759,1.364,2.873.722,3.271,1.705s-.953,2.654-2.455,3.456a6.066,6.066,0,0,1-6.553-.938c-1.774-1.535-2-3.9-2.45-8.628-.5-5.19-.785-8.168,0-12.084.272-1.381.612-2.529,0-3.45-.717-1.074-2.669-1.017-6.548-.864-9.191.364-9.557.426-10.636,0-1.476-.568-3.051-1.614-4.088-.864-.5.358-.523.858-.822,1.705a12.093,12.093,0,0,1-4.088,5.178c-2.01,1.671-2.816,1.415-3.277,2.586-.644,1.654.4,3.558.822,4.314a10.927,10.927,0,0,0,4.91,4.314c2.853,1.5,4.355,1.228,4.9,2.592a3.648,3.648,0,0,1-.816,3.45c-1.8,2.086-5.292,1-5.726.864-1.513-.472-1.643-1.04-4.91-3.45-2.957-2.183-3.177-1.955-4.91-3.456-2.392-2.069-3.795-3.28-4.088-5.178s.822-2.37,1.633-6.036c.23-1.023,1.193-5.36,0-6.042-.926-.534-2.193,1.705-5.726,3.45-2.418,1.205-2.842.665-5.726,1.705a24.911,24.911,0,0,0-8.181,5.178c-2.847,2.512-5.072,4.473-4.91,6.9.079,1.177.654,1.535.817,3.456.1,1.216.293,3.41-.817,4.314-1.361,1.137-4.187,0-5.726-1.705a7.415,7.415,0,0,1-1.638-5.178c.1-2.649,1.429-4.417,2.455-6.042,3.14-4.974,1.67-5.684,4.91-12.079,2.554-5.059,3.109-3.9,7.364-11.22,2.528-4.354,1.539-3.41,4.91-9.492,2.617-4.763,3.512-5.849,3.271-7.77s-1.377-2.785-4.91-6.9c-2.188-2.552-3.873-4.7-4.91-6.042a15.66,15.66,0,0,1-3.276-6.9,23.693,23.693,0,0,1,0-6.906,22.679,22.679,0,0,1,.817-5.178,17.948,17.948,0,0,1,3.266-6.019,17.089,17.089,0,0,1,7.37-5.2,7.264,7.264,0,0,1,6.548-1.705,2.741,2.741,0,0,1,.817,1.705c.063,1.665-1.963,2.467-4.91,5.178a22.314,22.314,0,0,0-4.91,6.036,15.387,15.387,0,0,0-1.633,4.32,14.013,14.013,0,0,0,0,6.036c.665,2.842,2.361,4.8,5.726,8.634a38.568,38.568,0,0,0,3.271,3.45A27.239,27.239,0,0,0,173.069,212.277Z" transform="translate(488 -179)" fill="#0e0d0e"/>
      </g>
    </g>
  </g>
</svg>
