<svg id="Phone" xmlns="http://www.w3.org/2000/svg" width="25" height="25" viewBox="0 0 25 25">
  <rect id="Rectangle_320" data-name="Rectangle 320" width="16" height="16" fill="none"/>
  <path id="Path_110" data-name="Path 110" d="M14.509,17.857,17.188,15.4a.82.82,0,0,1,.67-.223l.446.223,6.25,2.9c.446.223.446.446.446.893-.223,1.786-.67,3.125-1.786,4.018A6.394,6.394,0,0,1,18.527,25a13.6,13.6,0,0,1-6.25-1.562,29.262,29.262,0,0,1-6.25-4.464,38.02,38.02,0,0,1-3.348-4.911A30.854,30.854,0,0,1,.446,9.152,13.736,13.736,0,0,1,0,4.911,5.866,5.866,0,0,1,1.563,1.563C2.455.67,3.795.223,5.8,0A1.16,1.16,0,0,1,6.7.446L10.045,6.7a.779.779,0,0,0,.223.446.82.82,0,0,1-.223.67l-2.9,2.679a1,1,0,0,0,0,1.116,21.316,21.316,0,0,0,2.679,3.571,22.538,22.538,0,0,0,3.571,2.9C13.839,18.3,14.286,18.3,14.509,17.857Z"/>
</svg>
