<svg xmlns="http://www.w3.org/2000/svg" xmlns:xlink="http://www.w3.org/1999/xlink" width="200" height="200" viewBox="0 0 200 200">
  <defs>
    <clipPath id="clip-path">
      <rect id="Rectangle_321" data-name="Rectangle 321" width="86.549" height="109.224" fill="none"/>
    </clipPath>
    <clipPath id="clip-path-2">
      <rect id="Rectangle_321-2" data-name="Rectangle 321" width="60.099" height="77.067" fill="none"/>
    </clipPath>
    <clipPath id="clip-path-3">
      <rect id="Rectangle_321-3" data-name="Rectangle 321" width="130.049" height="183.224" fill="none"/>
    </clipPath>
    <clipPath id="clip-Artboard_7">
      <rect width="200" height="200"/>
    </clipPath>
  </defs>
  <g id="Artboard_7" data-name="Artboard – 7" clip-path="url(#clip-Artboard_7)">
    <g id="Group_16" data-name="Group 16" transform="translate(-11 -32.082)">
      <g id="Group_13" data-name="Group 13" transform="translate(11 32.082)">
        <g id="Group_2" data-name="Group 2" clip-path="url(#clip-path)">
          <path id="Path_115" data-name="Path 115" d="M86.549,54.614H85.095c-23.017,0-41.674,22.493-41.674,50.241v4.37c0-30.162-19.44-54.611-43.421-54.611,23.017,0,41.674-22.495,41.674-50.243V0c0,30.162,20.091,54.613,44.874,54.613" transform="translate(0 -0.001)" fill="#f9e97a"/>
        </g>
      </g>
      <g id="Group_14" data-name="Group 14" transform="translate(54.274 155.85)">
        <g id="Group_2-2" data-name="Group 2" clip-path="url(#clip-path-2)">
          <path id="Path_115-2" data-name="Path 115" d="M60.1,38.535h-1.01c-15.983,0-28.938,15.871-28.938,35.449v3.083c0-21.282-13.5-38.533-30.151-38.533,15.983,0,28.938-15.872,28.938-35.451V0c0,21.282,13.951,38.534,31.161,38.534" transform="translate(0 -0.001)" fill="#f9e97a"/>
        </g>
      </g>
      <g id="Group_15" data-name="Group 15" transform="translate(80.951 49.694)">
        <g id="Group_2-3" data-name="Group 2" clip-path="url(#clip-path-3)">
          <path id="Path_115-3" data-name="Path 115" d="M130.049,91.615h-2.185c-34.585,0-62.62,37.731-62.62,84.279v7.331c0-50.6-29.211-91.61-65.244-91.61,34.585,0,62.62-37.735,62.62-84.283V0c0,50.6,30.188,91.614,67.429,91.614" transform="translate(0 -0.001)" fill="#f9e97a"/>
        </g>
      </g>
    </g>
  </g>
</svg>
